# xmcd
#
# Track frame offsets: 
#        150
#        16775
#        35883
#        55108
#        80533
#        98608
#        119983
#        138873
#        160778
#        185945
#        200175
#        217175
#        230900
#
# Disc length: 3312 seconds
#
# Revision: 3
# Processed by: cddbd v1.5.2PL0 Copyright (c) Steve Scherf et al.
# Submitted via: ExactAudioCopy v0.99pb5
#
DISCID=c60cee0d
DTITLE=Bandari - Reflections CD1
DYEAR=2000
DGENRE=New Age
TTITLE0=Dark Side of the Sun
TTITLE1=Brain Ticket
TTITLE2=Visions
TTITLE3=Air Mallet
TTITLE4=Time Drifters
TTITLE5=Wire
TTITLE6=Madness
TTITLE7=Baroque
TTITLE8=Venice
TTITLE9=Past Time
TTITLE10=Theme of Universe
TTITLE11=New Morning
TTITLE12=Octopus
EXTD=YEAR: 2000
EXTT0=
EXTT1=
EXTT2=
EXTT3=
EXTT4=
EXTT5=
EXTT6=
EXTT7=
EXTT8=
EXTT9=
EXTT10=
EXTT11=
EXTT12=
PLAYORDER=
